<svg width="31" height="31" viewBox="0 0 31 31" fill="none" xmlns="http://www.w3.org/2000/svg">
<path d="M28.4166 14.3119V15.5002C28.415 18.2856 27.5131 20.9959 25.8453 23.2268C24.1776 25.4577 21.8333 27.0897 19.1623 27.8794C16.4912 28.6692 13.6364 28.5744 11.0236 27.6091C8.41084 26.6438 6.1801 24.8598 4.66408 22.5231C3.14805 20.1864 2.42798 17.4223 2.61125 14.643C2.79452 11.8636 3.87131 9.21799 5.68103 7.10062C7.49075 4.98325 9.93643 3.5076 12.6533 2.89375C15.3702 2.27991 18.2128 2.56075 20.757 3.6944" fill="#99DDFF"/>
<path d="M28.4166 5.1669L15.4999 18.0965L11.6249 14.2215" fill="#99DDFF"/>
<path d="M28.4166 14.3119V15.5002C28.415 18.2856 27.5131 20.9959 25.8453 23.2268C24.1776 25.4577 21.8333 27.0897 19.1623 27.8794C16.4912 28.6692 13.6364 28.5744 11.0236 27.6091C8.41084 26.6438 6.1801 24.8598 4.66408 22.5231C3.14805 20.1864 2.42798 17.4223 2.61125 14.643C2.79452 11.8636 3.87131 9.21799 5.68103 7.10062C7.49075 4.98325 9.93643 3.5076 12.6533 2.89375C15.3702 2.27991 18.2128 2.56075 20.757 3.6944M28.4166 5.1669L15.4999 18.0965L11.6249 14.2215" stroke="#03A4F6" stroke-width="3" stroke-linecap="round" stroke-linejoin="round"/>
</svg>
