<svg width="size" height="size" viewBox="0 0 24 25" fill="none" xmlns="http://www.w3.org/2000/svg">
<path d="M5.46936 9.41559C7.40236 9.41559 8.96936 7.84859 8.96936 5.91559C8.96936 3.98259 7.40236 2.41559 5.46936 2.41559C3.53636 2.41559 1.96936 3.98259 1.96936 5.91559C1.96936 7.84859 3.53636 9.41559 5.46936 9.41559Z" stroke="currentColor" stroke-width="1.5"/>
<path d="M16.9694 15.4156H19.9694C21.0694 15.4156 21.9694 16.3156 21.9694 17.4156V20.4156C21.9694 21.5156 21.0694 22.4156 19.9694 22.4156H16.9694C15.8694 22.4156 14.9694 21.5156 14.9694 20.4156V17.4156C14.9694 16.3156 15.8694 15.4156 16.9694 15.4156Z" stroke="currentColor" stroke-width="1.5"/>
<path d="M11.9993 5.41559H14.6793C16.5293 5.41559 17.3893 7.70559 15.9993 8.92559L8.00933 15.9156C6.61933 17.1256 7.47933 19.4156 9.31933 19.4156H11.9993" stroke="currentColor" stroke-width="1.5" stroke-linecap="round" stroke-linejoin="round"/>
<path d="M5.48561 5.91559H5.49716" stroke="currentColor" stroke-width="2" stroke-linecap="round" stroke-linejoin="round"/>
<path d="M18.4856 18.9156H18.4972" stroke="currentColor" stroke-width="2" stroke-linecap="round" stroke-linejoin="round"/>
</svg>
