<svg width="size" height="size" viewBox="0 0 32 33" fill="none" xmlns="http://www.w3.org/2000/svg">
<path d="M16.0001 23.375C16.3779 23.375 16.6945 23.2432 16.9501 22.9797C17.2056 22.7161 17.3334 22.3896 17.3334 22C17.3334 21.6104 17.2056 21.2839 16.9501 21.0203C16.6945 20.7568 16.3779 20.625 16.0001 20.625C15.6223 20.625 15.3056 20.7568 15.0501 21.0203C14.7945 21.2839 14.6667 21.6104 14.6667 22C14.6667 22.3896 14.7945 22.7161 15.0501 22.9797C15.3056 23.2432 15.6223 23.375 16.0001 23.375ZM14.6667 17.875H17.3334V9.625H14.6667V17.875ZM16.0001 30.25C14.1556 30.25 12.4223 29.8891 10.8001 29.1672C9.17786 28.4453 7.76675 27.4656 6.56675 26.2281C5.36675 24.9906 4.41675 23.5354 3.71675 21.8625C3.01675 20.1896 2.66675 18.4021 2.66675 16.5C2.66675 14.5979 3.01675 12.8104 3.71675 11.1375C4.41675 9.46458 5.36675 8.00937 6.56675 6.77187C7.76675 5.53437 9.17786 4.55469 10.8001 3.83281C12.4223 3.11094 14.1556 2.75 16.0001 2.75C17.8445 2.75 19.5779 3.11094 21.2001 3.83281C22.8223 4.55469 24.2334 5.53437 25.4334 6.77187C26.6334 8.00937 27.5834 9.46458 28.2834 11.1375C28.9834 12.8104 29.3334 14.5979 29.3334 16.5C29.3334 18.4021 28.9834 20.1896 28.2834 21.8625C27.5834 23.5354 26.6334 24.9906 25.4334 26.2281C24.2334 27.4656 22.8223 28.4453 21.2001 29.1672C19.5779 29.8891 17.8445 30.25 16.0001 30.25Z" fill="#E92727"/>
</svg>
