<svg width="size" height="size" viewBox="0 0 29 29" fill="none" xmlns="http://www.w3.org/2000/svg">
<path d="M9.7972 26.9501H5.01135C2.63028 26.9501 1.4812 25.8484 1.4812 23.5739V4.85699C1.4812 2.58253 2.64212 1.48083 5.01135 1.48083H9.7972C12.1783 1.48083 13.3274 2.58253 13.3274 4.85699V23.5739C13.3274 25.8484 12.1664 26.9501 9.7972 26.9501ZM5.01135 3.25776C3.50689 3.25776 3.25812 3.66053 3.25812 4.85699V23.5739C3.25812 24.7704 3.50689 25.1731 5.01135 25.1731H9.7972C11.3017 25.1731 11.5504 24.7704 11.5504 23.5739V4.85699C11.5504 3.66053 11.3017 3.25776 9.7972 3.25776H5.01135Z" fill="currentColor"/>
<path d="M23.4196 16.2885H18.6338C16.2527 16.2885 15.1036 15.1868 15.1036 12.9124V4.85699C15.1036 2.58253 16.2646 1.48083 18.6338 1.48083H23.4196C25.8007 1.48083 26.9498 2.58253 26.9498 4.85699V12.9124C26.9498 15.1868 25.7889 16.2885 23.4196 16.2885ZM18.6338 3.25776C17.1293 3.25776 16.8806 3.66053 16.8806 4.85699V12.9124C16.8806 14.1088 17.1293 14.5116 18.6338 14.5116H23.4196C24.9241 14.5116 25.1729 14.1088 25.1729 12.9124V4.85699C25.1729 3.66053 24.9241 3.25776 23.4196 3.25776H18.6338Z" fill="currentColor"/>
<path d="M23.4196 26.9495H18.6338C16.2527 26.9495 15.1036 25.8478 15.1036 23.5733V21.441C15.1036 19.1666 16.2646 18.0649 18.6338 18.0649H23.4196C25.8007 18.0649 26.9498 19.1666 26.9498 21.441V23.5733C26.9498 25.8478 25.7889 26.9495 23.4196 26.9495ZM18.6338 19.8418C17.1293 19.8418 16.8806 20.2446 16.8806 21.441V23.5733C16.8806 24.7698 17.1293 25.1726 18.6338 25.1726H23.4196C24.9241 25.1726 25.1729 24.7698 25.1729 23.5733V21.441C25.1729 20.2446 24.9241 19.8418 23.4196 19.8418H18.6338Z" fill="currentColor"/>
</svg>
