<svg width="size" height="size" viewBox="0 0 25 25" fill="none" xmlns="http://www.w3.org/2000/svg">
<path d="M18.6617 22.0363C17.7817 22.2963 16.7417 22.4163 15.5217 22.4163H9.52171C8.30171 22.4163 7.26171 22.2963 6.38171 22.0363C6.60171 19.4363 9.27171 17.3862 12.5217 17.3862C15.7717 17.3862 18.4417 19.4363 18.6617 22.0363Z" stroke="currentColor" stroke-width="1.5" stroke-linecap="round" stroke-linejoin="round"/>
<path d="M15.5217 2.41626H9.52173C4.52173 2.41626 2.52173 4.41626 2.52173 9.41626V15.4163C2.52173 19.1963 3.66173 21.2663 6.38173 22.0363C6.60173 19.4363 9.27173 17.3862 12.5217 17.3862C15.7717 17.3862 18.4417 19.4363 18.6617 22.0363C21.3817 21.2663 22.5217 19.1963 22.5217 15.4163V9.41626C22.5217 4.41626 20.5217 2.41626 15.5217 2.41626ZM12.5217 14.5862C10.5417 14.5862 8.94173 12.9763 8.94173 10.9963C8.94173 9.01628 10.5417 7.41626 12.5217 7.41626C14.5017 7.41626 16.1017 9.01628 16.1017 10.9963C16.1017 12.9763 14.5017 14.5862 12.5217 14.5862Z" stroke="currentColor" stroke-width="1.5" stroke-linecap="round" stroke-linejoin="round"/>
<path d="M16.1018 10.9963C16.1018 12.9763 14.5018 14.5862 12.5218 14.5862C10.5418 14.5862 8.94177 12.9763 8.94177 10.9963C8.94177 9.01628 10.5418 7.41626 12.5218 7.41626C14.5018 7.41626 16.1018 9.01628 16.1018 10.9963Z" stroke="currentColor" stroke-width="1.5" stroke-linecap="round" stroke-linejoin="round"/>
</svg>
