<svg width="size" height="size" viewBox="0 0 24 25" fill="none" xmlns="http://www.w3.org/2000/svg">
<path d="M19.9999 8.66577V18.4158C19.9999 21.4158 18.2099 22.4158 15.9999 22.4158H7.99988C5.78988 22.4158 3.99988 21.4158 3.99988 18.4158V8.66577C3.99988 5.41577 5.78988 4.66577 7.99988 4.66577C7.99988 5.28577 8.24985 5.84577 8.65985 6.25577C9.06985 6.66577 9.62988 6.91577 10.2499 6.91577H13.7499C14.9899 6.91577 15.9999 5.90577 15.9999 4.66577C18.2099 4.66577 19.9999 5.41577 19.9999 8.66577Z" stroke="currentColor" stroke-width="1.5" stroke-linecap="round" stroke-linejoin="round"/>
<path d="M15.9999 4.66577C15.9999 5.90577 14.9899 6.91577 13.7499 6.91577H10.2499C9.62988 6.91577 9.06985 6.66577 8.65985 6.25577C8.24985 5.84577 7.99988 5.28577 7.99988 4.66577C7.99988 3.42577 9.00988 2.41577 10.2499 2.41577H13.7499C14.3699 2.41577 14.9299 2.66578 15.3399 3.07578C15.7499 3.48578 15.9999 4.04577 15.9999 4.66577Z" stroke="currentColor" stroke-width="1.5" stroke-linecap="round" stroke-linejoin="round"/>
<path d="M7.99988 13.4158H11.9999" stroke="currentColor" stroke-width="1.5" stroke-linecap="round" stroke-linejoin="round"/>
<path d="M7.99988 17.4158H15.9999" stroke="currentColor" stroke-width="1.5" stroke-linecap="round" stroke-linejoin="round"/>
</svg>
