<svg width="size" height="size" viewBox="0 0 25 25" fill="none" xmlns="http://www.w3.org/2000/svg">
<path d="M9.52161 22.416H15.5216C20.5216 22.416 22.5216 20.416 22.5216 15.416V9.41602C22.5216 4.41602 20.5216 2.41602 15.5216 2.41602H9.52161C4.52161 2.41602 2.52161 4.41602 2.52161 9.41602V15.416C2.52161 20.416 4.52161 22.416 9.52161 22.416Z" stroke="currentColor" stroke-width="1.5" stroke-linecap="round" stroke-linejoin="round"/>
<path d="M16.0916 18.916V15.016" stroke="currentColor" stroke-width="1.5" stroke-miterlimit="10" stroke-linecap="round" stroke-linejoin="round"/>
<path d="M16.0916 7.86602V5.91602" stroke="currentColor" stroke-width="1.5" stroke-miterlimit="10" stroke-linecap="round" stroke-linejoin="round"/>
<path d="M16.0916 13.066C17.5275 13.066 18.6916 11.9019 18.6916 10.466C18.6916 9.03003 17.5275 7.86597 16.0916 7.86597C14.6556 7.86597 13.4916 9.03003 13.4916 10.466C13.4916 11.9019 14.6556 13.066 16.0916 13.066Z" stroke="currentColor" stroke-width="1.5" stroke-miterlimit="10" stroke-linecap="round" stroke-linejoin="round"/>
<path d="M8.95166 18.9161V16.9661" stroke="currentColor" stroke-width="1.5" stroke-miterlimit="10" stroke-linecap="round" stroke-linejoin="round"/>
<path d="M8.95166 9.81602V5.91602" stroke="currentColor" stroke-width="1.5" stroke-miterlimit="10" stroke-linecap="round" stroke-linejoin="round"/>
<path d="M8.95156 16.966C10.3875 16.966 11.5516 15.8019 11.5516 14.366C11.5516 12.9301 10.3875 11.766 8.95156 11.766C7.51562 11.766 6.35156 12.9301 6.35156 14.366C6.35156 15.8019 7.51562 16.966 8.95156 16.966Z" stroke="currentColor" stroke-width="1.5" stroke-miterlimit="10" stroke-linecap="round" stroke-linejoin="round"/>
</svg>
